<?xml version="1.0" encoding="utf-8"?>
<!-- Generator: Adobe Illustrator 23.0.2, SVG Export Plug-In . SVG Version: 6.00 Build 0)  -->
<svg version="1.1" xmlns="http://www.w3.org/2000/svg" xmlns:xlink="http://www.w3.org/1999/xlink" x="0px" y="0px"
	 viewBox="0 0 1200 630" style="enable-background:new 0 0 1200 630;" xml:space="preserve">
<style type="text/css">
	.st0{fill:none;stroke:#D0D2D3;stroke-miterlimit:10;}
	.st1{fill:#F82A4C;}
	.st2{fill:#99001A;}
	.st3{fill:#0462F4;}
	.st4{fill:#D81C3B;}
	.st5{fill:#55AAF6;}
	.st6{fill:#7DCEF7;}
</style>
<g id="Layer_2">
</g>
<g id="Layer_1">
	<g>
		<g>
			<polyline class="st0" points="690.38,329.4 729.68,427.69 753.83,477.6 			"/>
			<polyline class="st0" points="659.44,343.02 729.68,427.69 809.09,473.73 			"/>
			<circle class="st1" cx="659.44" cy="343.02" r="6.03"/>
			<circle class="st1" cx="690.38" cy="329.4" r="4.47"/>
			<circle class="st2" cx="809.09" cy="473.73" r="3.81"/>
			<circle class="st1" cx="753.83" cy="477.6" r="6.22"/>
			<polygon class="st3" points="733.06,431.08 730.92,423.06 725.05,428.93 			"/>
		</g>
		<g>
			<polyline class="st0" points="279.78,214.45 479.44,398.86 521.42,435.09 			"/>
			<polyline class="st0" points="312.46,313.07 479.44,398.86 615.51,523.3 			"/>
			<circle class="st1" cx="312.46" cy="313.07" r="6.03"/>
			<circle class="st2" cx="279.78" cy="214.45" r="4.47"/>
			<circle class="st2" cx="615.51" cy="523.3" r="3.81"/>
			<circle class="st1" cx="521.42" cy="435.09" r="6.22"/>
			<polygon class="st3" points="483.89,400.63 478.74,394.12 475.69,401.84 			"/>
		</g>
		<g>
			<polyline class="st0" points="636.27,123.24 615.51,352.92 858.14,568.4 			"/>
			<circle class="st1" cx="636.24" cy="123.24" r="6.03"/>
			<circle class="st2" cx="858.14" cy="568.4" r="8.07"/>
			<polygon class="st3" points="619.72,355.2 615.38,348.13 611.43,355.42 			"/>
		</g>
		<g>
			<polyline class="st0" points="351.15,455.88 547.37,454.45 517.36,155.18 			"/>
			<polyline class="st0" points="365.81,468.31 547.37,454.45 535.45,531.43 			"/>
			<polyline class="st0" points="555,525.14 547.37,454.45 663.92,431.05 			"/>
			<line class="st0" x1="672.24" y1="411.92" x2="547.37" y2="454.45"/>
			<circle class="st1" cx="555" cy="525.14" r="7.64"/>
			<circle class="st1" cx="663.92" cy="431.05" r="8.32"/>
			<circle class="st1" cx="672.24" cy="411.92" r="8.32"/>
			<circle class="st1" cx="517.36" cy="155.18" r="6.03"/>
			<circle class="st1" cx="535.45" cy="531.43" r="8.13"/>
			<circle class="st1" cx="351.15" cy="455.88" r="8.13"/>
			<circle class="st4" cx="365.81" cy="468.31" r="6.05"/>
			<polygon class="st3" points="545.43,450.07 544.54,458.32 552.13,454.97 			"/>
		</g>
		<g>
			<polyline class="st0" points="558.02,171.18 598.43,333.04 718.33,135.02 			"/>
			<line class="st0" x1="575.97" y1="96.44" x2="598.43" y2="333.04"/>
			<circle class="st1" cx="718.33" cy="135.02" r="6.22"/>
			<circle class="st1" cx="575.97" cy="96.44" r="7.96"/>
			<circle class="st2" cx="558.02" cy="171.18" r="5.89"/>
			<polygon class="st5" points="596.33,337.35 603.21,332.71 595.75,329.07 			"/>
		</g>
		<g>
			<polyline class="st0" points="259.83,371.83 594.1,361.38 357.35,185.69 			"/>
			<line class="st0" x1="173.94" y1="115.03" x2="594.1" y2="361.38"/>
			<circle class="st1" cx="357.35" cy="185.69" r="6.22"/>
			<circle class="st1" cx="173.94" cy="115.03" r="7.96"/>
			<circle class="st2" cx="259.83" cy="371.83" r="5.89"/>
			<polygon class="st5" points="593.14,366.07 598.64,359.86 590.51,358.2 			"/>
		</g>
		<g>
			<polyline class="st0" points="400.94,335.24 630.39,352.04 605.03,158.5 			"/>
			<polyline class="st0" points="665.47,98.19 630.39,352.04 710.29,311.39 			"/>
			<polyline class="st0" points="684.47,443.35 630.39,352.04 508.23,507.03 			"/>
			<line class="st0" x1="498.73" y1="493.29" x2="630.39" y2="352.04"/>
			<circle class="st4" cx="508.23" cy="507.03" r="5.97"/>
			<circle class="st1" cx="710.29" cy="311.39" r="5.71"/>
			<circle class="st1" cx="684.47" cy="443.35" r="8.19"/>
			<circle class="st1" cx="498.73" cy="493.29" r="5.97"/>
			<circle class="st4" cx="400.94" cy="335.24" r="8.36"/>
			<circle class="st4" cx="605.03" cy="158.5" r="6.21"/>
			<circle class="st1" cx="665.47" cy="98.19" r="6.21"/>
			<polygon class="st3" points="632.95,347.99 625.61,351.86 632.63,356.28 			"/>
		</g>
		<g>
			<polyline class="st0" points="271.42,326.59 580.8,310.81 555.44,117.27 			"/>
			<line class="st0" x1="467.91" y1="513" x2="580.8" y2="310.81"/>
			<circle class="st1" cx="458.64" cy="465.8" r="5.97"/>
			<circle class="st2" cx="467.91" cy="513" r="3.92"/>
			<circle class="st4" cx="271.42" cy="326.59" r="8.36"/>
			<circle class="st4" cx="555.44" cy="117.27" r="6.21"/>
			<circle class="st1" cx="615.88" cy="56.95" r="6.21"/>
			<polygon class="st3" points="583.35,306.75 576.02,310.63 583.04,315.04 			"/>
		</g>
		<g>
			<polyline class="st0" points="482.18,326.9 566.1,419.43 621.36,483.82 			"/>
			<circle class="st1" cx="621.36" cy="483.82" r="6.28"/>
			<circle class="st1" cx="482.18" cy="326.9" r="8.3"/>
			<polygon class="st5" points="569.86,422.41 566.8,414.69 561.65,421.19 			"/>
		</g>
		<g>
			<line class="st0" x1="432.97" y1="82.2" x2="581.96" y2="392.03"/>
			<circle class="st2" cx="432.97" cy="82.2" r="6.28"/>
			<polygon class="st5" points="577.98,389.37 581.65,396.81 586.26,389.91 			"/>
		</g>
		<g>
			<polyline class="st0" points="435.49,155.18 539.53,358.89 585.69,133.12 			"/>
			<polyline class="st0" points="621.36,139.6 539.53,358.89 747.61,167.99 			"/>
			<polyline class="st0" points="827.54,138.73 539.53,358.89 643.94,344.58 			"/>
			<polyline class="st0" points="631.86,386.13 539.53,358.89 589.43,427.55 			"/>
			<polyline class="st0" points="563.08,433.65 539.53,358.89 426.96,539.56 			"/>
			<circle class="st1" cx="827.54" cy="138.73" r="8.3"/>
			<circle class="st1" cx="589.43" cy="427.55" r="8.3"/>
			<circle class="st4" cx="747.61" cy="167.99" r="6.1"/>
			<circle class="st1" cx="631.86" cy="386.13" r="6.1"/>
			<circle class="st1" cx="643.94" cy="344.58" r="6.1"/>
			<circle class="st1" cx="563.08" cy="433.65" r="6.1"/>
			<circle class="st4" cx="426.96" cy="539.56" r="6.1"/>
			<circle class="st1" cx="621.36" cy="139.6" r="4.15"/>
			<circle class="st1" cx="585.69" cy="133.12" r="5.61"/>
			<circle class="st1" cx="435.49" cy="155.18" r="5.61"/>
			<polygon class="st3" points="543.28,361.87 540.23,354.15 535.07,360.66 			"/>
		</g>
		<g>
			<polyline class="st0" points="1011.9,375.77 729.28,359.9 910.4,129.02 			"/>
			<circle class="st4" cx="910.4" cy="129.02" r="3.97"/>
			<circle class="st1" cx="1011.9" cy="375.77" r="5.61"/>
			<polygon class="st6" points="732.32,363.59 730.96,355.41 724.55,360.68 			"/>
		</g>
		<g>
			<polyline class="st0" points="898.48,458.01 684.54,389.32 854.64,305.78 			"/>
			<circle class="st4" cx="854.64" cy="305.78" r="5.61"/>
			<circle class="st1" cx="898.48" cy="458.01" r="5.61"/>
			<polygon class="st3" points="687.58,393.02 686.22,384.84 679.81,390.11 			"/>
		</g>
		<g>
			<polyline class="st0" points="371.86,550.73 513.94,332.2 344.08,332.2 			"/>
			<circle class="st4" cx="344.08" cy="332.2" r="5.61"/>
			<circle class="st1" cx="371.86" cy="550.73" r="5.61"/>
			<polygon class="st3" points="516.99,335.9 515.62,327.71 509.22,332.98 			"/>
		</g>
		<g>
			<polyline class="st0" points="581.96,158.72 659.59,376.08 672.24,304.96 			"/>
			<polyline class="st0" points="725.12,236.37 659.59,376.08 748.22,294.38 			"/>
			<polyline class="st0" points="924.43,211.57 659.59,376.08 801.49,348.6 			"/>
			<polyline class="st0" points="822.94,411.92 659.59,376.08 709.96,444.06 			"/>
			<polyline class="st0" points="689.88,463.16 659.59,376.08 621.47,440.84 			"/>
			<circle class="st1" cx="672.24" cy="304.96" r="5.61"/>
			<circle class="st1" cx="725.12" cy="236.37" r="4.09"/>
			<circle class="st1" cx="581.96" cy="158.72" r="5.99"/>
			<circle class="st1" cx="822.94" cy="411.92" r="5.61"/>
			<circle class="st1" cx="709.96" cy="444.06" r="8.37"/>
			<circle class="st1" cx="689.88" cy="463.16" r="5.15"/>
			<circle class="st1" cx="621.47" cy="440.84" r="5.98"/>
			<circle class="st2" cx="801.49" cy="348.6" r="5.61"/>
			<circle class="st4" cx="924.43" cy="211.57" r="8.42"/>
			<circle class="st2" cx="748.22" cy="294.38" r="5.78"/>
			<polygon class="st6" points="663.47,379.47 662.11,371.28 655.7,376.55 			"/>
		</g>
		<g>
			<polyline class="st0" points="636.27,123.24 615.51,352.92 174.17,479.84 			"/>
			<circle class="st1" cx="636.24" cy="123.24" r="6.03"/>
			<circle class="st2" cx="174.17" cy="479.84" r="8.07"/>
			<polygon class="st3" points="619.72,355.2 615.38,348.13 611.43,355.42 			"/>
		</g>
		<g>
			<polyline class="st0" points="515.68,82.69 455.42,310.57 253.94,418.18 			"/>
			<circle class="st1" cx="515.65" cy="82.69" r="6.03"/>
			<circle class="st1" cx="253.94" cy="418.18" r="8.07"/>
			<polygon class="st3" points="459.63,312.86 455.29,305.78 451.33,313.08 			"/>
		</g>
		<g>
			<polyline class="st0" points="547.37,132.88 617.6,330.58 760.22,111.2 			"/>
			<line class="st0" x1="996.35" y1="280.8" x2="617.6" y2="330.58"/>
			<circle class="st4" cx="760.22" cy="111.2" r="6.22"/>
			<circle class="st1" cx="996.35" cy="280.8" r="7.96"/>
			<circle class="st2" cx="547.37" cy="132.88" r="5.89"/>
			<polygon class="st5" points="613.05,332.1 621.18,333.76 618.55,325.88 			"/>
		</g>
	</g>
</g>
<g id="Layer_3">
</g>
</svg>
